<mxfile host="app.diagrams.net" agent="Mozilla/5.0 (Windows NT 10.0; Win64; x64) AppleWebKit/537.36 (KHTML, like Gecko) Chrome/133.0.0.0 Safari/537.36 Edg/133.0.0.0" version="26.0.7">
  <diagram name="Page-1" id="mj8Or6d1qkVJcwnrX4nN">
    <mxGraphModel dx="1165" dy="514" grid="1" gridSize="10" guides="1" tooltips="1" connect="1" arrows="1" fold="1" page="1" pageScale="1" pageWidth="827" pageHeight="1169" math="0" shadow="0">
      <root>
        <mxCell id="0" />
        <mxCell id="1" parent="0" />
        <mxCell id="QJPwqkCR_pDQq-JYY8ci-2" value="" style="rounded=0;whiteSpace=wrap;html=1;fillColor=light-dark(#B9E0A5,var(--ge-dark-color, #121212));" vertex="1" parent="1">
          <mxGeometry x="190" y="120" width="270" height="400" as="geometry" />
        </mxCell>
        <mxCell id="QJPwqkCR_pDQq-JYY8ci-3" value="Bruker" style="shape=umlActor;verticalLabelPosition=bottom;verticalAlign=top;html=1;outlineConnect=0;fillColor=light-dark(#8C8C8C,var(--ge-dark-color, #121212));" vertex="1" parent="1">
          <mxGeometry x="80" y="240" width="30" height="60" as="geometry" />
        </mxCell>
        <mxCell id="QJPwqkCR_pDQq-JYY8ci-4" value="Hopla" style="shape=umlActor;verticalLabelPosition=bottom;verticalAlign=top;html=1;outlineConnect=0;fillColor=light-dark(#8C8C8C,var(--ge-dark-color, #121212));" vertex="1" parent="1">
          <mxGeometry x="490" y="440" width="30" height="60" as="geometry" />
        </mxCell>
        <mxCell id="QJPwqkCR_pDQq-JYY8ci-6" value="GPS" style="shape=umlActor;verticalLabelPosition=bottom;verticalAlign=top;html=1;outlineConnect=0;fillColor=light-dark(#8C8C8C,var(--ge-dark-color, #121212));" vertex="1" parent="1">
          <mxGeometry x="490" y="120" width="30" height="60" as="geometry" />
        </mxCell>
        <mxCell id="QJPwqkCR_pDQq-JYY8ci-7" value="MobilKamera" style="shape=umlActor;verticalLabelPosition=bottom;verticalAlign=top;html=1;outlineConnect=0;fillColor=light-dark(#8C8C8C,var(--ge-dark-color, #121212));" vertex="1" parent="1">
          <mxGeometry x="490" y="270" width="30" height="60" as="geometry" />
        </mxCell>
        <mxCell id="QJPwqkCR_pDQq-JYY8ci-11" value="&lt;font style=&quot;font-size: 10px;&quot;&gt;Legge til og endre løyper&lt;/font&gt;" style="ellipse;whiteSpace=wrap;html=1;fillColor=light-dark(#97D077,var(--ge-dark-color, #121212));" vertex="1" parent="1">
          <mxGeometry x="210" y="140" width="70" height="40" as="geometry" />
        </mxCell>
        <mxCell id="QJPwqkCR_pDQq-JYY8ci-12" value="&lt;font style=&quot;font-size: 10px;&quot;&gt;Finne tilgjengelige løyper&lt;/font&gt;" style="ellipse;whiteSpace=wrap;html=1;fillColor=light-dark(#97D077,var(--ge-dark-color, #121212));" vertex="1" parent="1">
          <mxGeometry x="210" y="182.5" width="70" height="40" as="geometry" />
        </mxCell>
        <mxCell id="QJPwqkCR_pDQq-JYY8ci-13" value="&lt;font style=&quot;font-size: 10px;&quot;&gt;Utestenge brukere&lt;/font&gt;" style="ellipse;whiteSpace=wrap;html=1;fillColor=light-dark(#97D077,var(--ge-dark-color, #121212));" vertex="1" parent="1">
          <mxGeometry x="373" y="430" width="70" height="40" as="geometry" />
        </mxCell>
        <mxCell id="QJPwqkCR_pDQq-JYY8ci-14" value="&lt;font style=&quot;font-size: 10px;&quot;&gt;Slette løyper&lt;/font&gt;" style="ellipse;whiteSpace=wrap;html=1;fillColor=light-dark(#97D077,var(--ge-dark-color, #121212));" vertex="1" parent="1">
          <mxGeometry x="373" y="480" width="70" height="30" as="geometry" />
        </mxCell>
        <mxCell id="QJPwqkCR_pDQq-JYY8ci-15" value="&lt;span style=&quot;font-size: 10px;&quot;&gt;Ta bilder&lt;/span&gt;" style="ellipse;whiteSpace=wrap;html=1;fillColor=light-dark(#97D077,var(--ge-dark-color, #121212));" vertex="1" parent="1">
          <mxGeometry x="371" y="240" width="85" height="40" as="geometry" />
        </mxCell>
        <mxCell id="QJPwqkCR_pDQq-JYY8ci-16" value="&lt;font style=&quot;font-size: 10px;&quot;&gt;Vise nåværende posisjon&lt;/font&gt;" style="ellipse;whiteSpace=wrap;html=1;fillColor=light-dark(#97D077,var(--ge-dark-color, #121212));" vertex="1" parent="1">
          <mxGeometry x="378" y="172.5" width="71" height="50" as="geometry" />
        </mxCell>
        <mxCell id="QJPwqkCR_pDQq-JYY8ci-17" value="&lt;font style=&quot;font-size: 10px;&quot;&gt;Oppdatere posisjon&lt;/font&gt;" style="ellipse;whiteSpace=wrap;html=1;fillColor=light-dark(#97D077,var(--ge-dark-color, #121212));" vertex="1" parent="1">
          <mxGeometry x="377.5" y="130" width="70" height="35" as="geometry" />
        </mxCell>
        <mxCell id="QJPwqkCR_pDQq-JYY8ci-18" value="&lt;font style=&quot;font-size: 10px;&quot;&gt;Se toppløype&amp;nbsp;&lt;/font&gt;" style="ellipse;whiteSpace=wrap;html=1;fillColor=light-dark(#97D077,var(--ge-dark-color, #121212));" vertex="1" parent="1">
          <mxGeometry x="210" y="230" width="70" height="30" as="geometry" />
        </mxCell>
        <mxCell id="QJPwqkCR_pDQq-JYY8ci-19" value="&lt;font style=&quot;font-size: 10px;&quot;&gt;Registrere hester&amp;nbsp;&lt;/font&gt;" style="ellipse;whiteSpace=wrap;html=1;fillColor=light-dark(#97D077,var(--ge-dark-color, #121212));" vertex="1" parent="1">
          <mxGeometry x="210" y="270" width="70" height="30" as="geometry" />
        </mxCell>
        <mxCell id="QJPwqkCR_pDQq-JYY8ci-20" value="&lt;span style=&quot;font-size: 10px;&quot;&gt;Se statistikk for brukere&lt;/span&gt;" style="ellipse;whiteSpace=wrap;html=1;fillColor=light-dark(#97D077,var(--ge-dark-color, #121212));" vertex="1" parent="1">
          <mxGeometry x="368.5" y="380" width="79" height="40" as="geometry" />
        </mxCell>
        <mxCell id="QJPwqkCR_pDQq-JYY8ci-21" value="&lt;font style=&quot;font-size: 10px;&quot;&gt;Skifte språk og lysmodus&lt;/font&gt;" style="ellipse;whiteSpace=wrap;html=1;fillColor=light-dark(#97D077,var(--ge-dark-color, #121212));" vertex="1" parent="1">
          <mxGeometry x="200" y="310" width="80" height="35" as="geometry" />
        </mxCell>
        <mxCell id="QJPwqkCR_pDQq-JYY8ci-23" value="&lt;font style=&quot;font-size: 10px;&quot;&gt;Legge til venner&lt;/font&gt;" style="ellipse;whiteSpace=wrap;html=1;fillColor=light-dark(#97D077,var(--ge-dark-color, #121212));" vertex="1" parent="1">
          <mxGeometry x="210" y="350" width="70" height="30" as="geometry" />
        </mxCell>
        <mxCell id="QJPwqkCR_pDQq-JYY8ci-24" value="&lt;font style=&quot;font-size: 10px;&quot;&gt;Følge brukere&lt;/font&gt;" style="ellipse;whiteSpace=wrap;html=1;fillColor=light-dark(#97D077,var(--ge-dark-color, #121212));" vertex="1" parent="1">
          <mxGeometry x="210" y="400" width="70" height="30" as="geometry" />
        </mxCell>
        <mxCell id="QJPwqkCR_pDQq-JYY8ci-25" value="&lt;font style=&quot;font-size: 10px;&quot;&gt;Endre informasjon om løyper&lt;/font&gt;" style="ellipse;whiteSpace=wrap;html=1;fillColor=light-dark(#97D077,var(--ge-dark-color, #121212));" vertex="1" parent="1">
          <mxGeometry x="367.5" y="320" width="80" height="50" as="geometry" />
        </mxCell>
        <mxCell id="QJPwqkCR_pDQq-JYY8ci-26" value="&lt;font style=&quot;font-size: 10px;&quot;&gt;Se og legge til oppdatering om løyper&lt;/font&gt;" style="ellipse;whiteSpace=wrap;html=1;fillColor=light-dark(#97D077,var(--ge-dark-color, #121212));" vertex="1" parent="1">
          <mxGeometry x="200" y="440" width="90" height="60" as="geometry" />
        </mxCell>
        <mxCell id="QJPwqkCR_pDQq-JYY8ci-27" value="" style="endArrow=none;html=1;rounded=0;entryX=0.5;entryY=0.5;entryDx=0;entryDy=0;entryPerimeter=0;" edge="1" parent="1" source="QJPwqkCR_pDQq-JYY8ci-11" target="QJPwqkCR_pDQq-JYY8ci-3">
          <mxGeometry width="50" height="50" relative="1" as="geometry">
            <mxPoint x="330" y="360" as="sourcePoint" />
            <mxPoint x="380" y="310" as="targetPoint" />
          </mxGeometry>
        </mxCell>
        <mxCell id="QJPwqkCR_pDQq-JYY8ci-29" value="" style="endArrow=none;html=1;rounded=0;exitX=0;exitY=0.5;exitDx=0;exitDy=0;entryX=0.5;entryY=0.5;entryDx=0;entryDy=0;entryPerimeter=0;" edge="1" parent="1" source="QJPwqkCR_pDQq-JYY8ci-12" target="QJPwqkCR_pDQq-JYY8ci-3">
          <mxGeometry width="50" height="50" relative="1" as="geometry">
            <mxPoint x="330" y="360" as="sourcePoint" />
            <mxPoint x="380" y="310" as="targetPoint" />
          </mxGeometry>
        </mxCell>
        <mxCell id="QJPwqkCR_pDQq-JYY8ci-30" value="" style="endArrow=none;html=1;rounded=0;exitX=0;exitY=0.5;exitDx=0;exitDy=0;entryX=0.5;entryY=0.5;entryDx=0;entryDy=0;entryPerimeter=0;" edge="1" parent="1" source="QJPwqkCR_pDQq-JYY8ci-18" target="QJPwqkCR_pDQq-JYY8ci-3">
          <mxGeometry width="50" height="50" relative="1" as="geometry">
            <mxPoint x="340" y="360" as="sourcePoint" />
            <mxPoint x="390" y="310" as="targetPoint" />
          </mxGeometry>
        </mxCell>
        <mxCell id="QJPwqkCR_pDQq-JYY8ci-31" value="" style="endArrow=none;html=1;rounded=0;exitX=0;exitY=0.5;exitDx=0;exitDy=0;entryX=0.5;entryY=0.5;entryDx=0;entryDy=0;entryPerimeter=0;" edge="1" parent="1" source="QJPwqkCR_pDQq-JYY8ci-19" target="QJPwqkCR_pDQq-JYY8ci-3">
          <mxGeometry width="50" height="50" relative="1" as="geometry">
            <mxPoint x="340" y="360" as="sourcePoint" />
            <mxPoint x="140" y="150" as="targetPoint" />
          </mxGeometry>
        </mxCell>
        <mxCell id="QJPwqkCR_pDQq-JYY8ci-34" value="" style="endArrow=none;html=1;rounded=0;entryX=0.5;entryY=0.5;entryDx=0;entryDy=0;entryPerimeter=0;exitX=0;exitY=0.5;exitDx=0;exitDy=0;" edge="1" parent="1" source="QJPwqkCR_pDQq-JYY8ci-21" target="QJPwqkCR_pDQq-JYY8ci-3">
          <mxGeometry width="50" height="50" relative="1" as="geometry">
            <mxPoint x="280" y="360" as="sourcePoint" />
            <mxPoint x="330" y="310" as="targetPoint" />
          </mxGeometry>
        </mxCell>
        <mxCell id="QJPwqkCR_pDQq-JYY8ci-35" value="" style="endArrow=none;html=1;rounded=0;entryX=0.5;entryY=0.5;entryDx=0;entryDy=0;entryPerimeter=0;exitX=0;exitY=0.5;exitDx=0;exitDy=0;" edge="1" parent="1" source="QJPwqkCR_pDQq-JYY8ci-23" target="QJPwqkCR_pDQq-JYY8ci-3">
          <mxGeometry width="50" height="50" relative="1" as="geometry">
            <mxPoint x="280" y="360" as="sourcePoint" />
            <mxPoint x="330" y="310" as="targetPoint" />
          </mxGeometry>
        </mxCell>
        <mxCell id="QJPwqkCR_pDQq-JYY8ci-36" value="" style="endArrow=none;html=1;rounded=0;entryX=0.5;entryY=0.5;entryDx=0;entryDy=0;entryPerimeter=0;exitX=0;exitY=0.5;exitDx=0;exitDy=0;" edge="1" parent="1" source="QJPwqkCR_pDQq-JYY8ci-24" target="QJPwqkCR_pDQq-JYY8ci-3">
          <mxGeometry width="50" height="50" relative="1" as="geometry">
            <mxPoint x="280" y="360" as="sourcePoint" />
            <mxPoint x="120" y="280" as="targetPoint" />
          </mxGeometry>
        </mxCell>
        <mxCell id="QJPwqkCR_pDQq-JYY8ci-37" value="" style="endArrow=none;html=1;rounded=0;exitX=0;exitY=0.5;exitDx=0;exitDy=0;entryX=0.5;entryY=0.5;entryDx=0;entryDy=0;entryPerimeter=0;" edge="1" parent="1" source="QJPwqkCR_pDQq-JYY8ci-26" target="QJPwqkCR_pDQq-JYY8ci-3">
          <mxGeometry width="50" height="50" relative="1" as="geometry">
            <mxPoint x="280" y="360" as="sourcePoint" />
            <mxPoint x="330" y="310" as="targetPoint" />
          </mxGeometry>
        </mxCell>
        <mxCell id="QJPwqkCR_pDQq-JYY8ci-38" value="" style="endArrow=none;html=1;rounded=0;entryX=0.5;entryY=0.5;entryDx=0;entryDy=0;entryPerimeter=0;exitX=1;exitY=0.5;exitDx=0;exitDy=0;" edge="1" parent="1" source="QJPwqkCR_pDQq-JYY8ci-16" target="QJPwqkCR_pDQq-JYY8ci-6">
          <mxGeometry width="50" height="50" relative="1" as="geometry">
            <mxPoint x="340" y="360" as="sourcePoint" />
            <mxPoint x="390" y="310" as="targetPoint" />
          </mxGeometry>
        </mxCell>
        <mxCell id="QJPwqkCR_pDQq-JYY8ci-39" value="" style="endArrow=none;html=1;rounded=0;entryX=0.5;entryY=0.5;entryDx=0;entryDy=0;entryPerimeter=0;exitX=0.947;exitY=0.331;exitDx=0;exitDy=0;exitPerimeter=0;" edge="1" parent="1" source="QJPwqkCR_pDQq-JYY8ci-17" target="QJPwqkCR_pDQq-JYY8ci-6">
          <mxGeometry width="50" height="50" relative="1" as="geometry">
            <mxPoint x="340" y="360" as="sourcePoint" />
            <mxPoint x="390" y="310" as="targetPoint" />
          </mxGeometry>
        </mxCell>
        <mxCell id="QJPwqkCR_pDQq-JYY8ci-40" value="" style="endArrow=none;html=1;rounded=0;entryX=0.5;entryY=0.5;entryDx=0;entryDy=0;entryPerimeter=0;exitX=1;exitY=0.5;exitDx=0;exitDy=0;" edge="1" parent="1" source="QJPwqkCR_pDQq-JYY8ci-15" target="QJPwqkCR_pDQq-JYY8ci-7">
          <mxGeometry width="50" height="50" relative="1" as="geometry">
            <mxPoint x="340" y="360" as="sourcePoint" />
            <mxPoint x="390" y="310" as="targetPoint" />
          </mxGeometry>
        </mxCell>
        <mxCell id="QJPwqkCR_pDQq-JYY8ci-41" value="" style="endArrow=none;html=1;rounded=0;entryX=0.5;entryY=0.5;entryDx=0;entryDy=0;entryPerimeter=0;exitX=1;exitY=0.5;exitDx=0;exitDy=0;" edge="1" parent="1" source="QJPwqkCR_pDQq-JYY8ci-25" target="QJPwqkCR_pDQq-JYY8ci-4">
          <mxGeometry width="50" height="50" relative="1" as="geometry">
            <mxPoint x="340" y="360" as="sourcePoint" />
            <mxPoint x="390" y="310" as="targetPoint" />
          </mxGeometry>
        </mxCell>
        <mxCell id="QJPwqkCR_pDQq-JYY8ci-42" value="" style="endArrow=none;html=1;rounded=0;entryX=0.5;entryY=0.5;entryDx=0;entryDy=0;entryPerimeter=0;exitX=1;exitY=0.5;exitDx=0;exitDy=0;" edge="1" parent="1" source="QJPwqkCR_pDQq-JYY8ci-20" target="QJPwqkCR_pDQq-JYY8ci-4">
          <mxGeometry width="50" height="50" relative="1" as="geometry">
            <mxPoint x="340" y="360" as="sourcePoint" />
            <mxPoint x="390" y="310" as="targetPoint" />
          </mxGeometry>
        </mxCell>
        <mxCell id="QJPwqkCR_pDQq-JYY8ci-43" value="" style="endArrow=none;html=1;rounded=0;exitX=1;exitY=0.5;exitDx=0;exitDy=0;entryX=0.5;entryY=0.5;entryDx=0;entryDy=0;entryPerimeter=0;" edge="1" parent="1" source="QJPwqkCR_pDQq-JYY8ci-13" target="QJPwqkCR_pDQq-JYY8ci-4">
          <mxGeometry width="50" height="50" relative="1" as="geometry">
            <mxPoint x="340" y="360" as="sourcePoint" />
            <mxPoint x="390" y="310" as="targetPoint" />
          </mxGeometry>
        </mxCell>
        <mxCell id="QJPwqkCR_pDQq-JYY8ci-44" value="" style="endArrow=none;html=1;rounded=0;exitX=1;exitY=0.5;exitDx=0;exitDy=0;entryX=0.5;entryY=0.5;entryDx=0;entryDy=0;entryPerimeter=0;" edge="1" parent="1" source="QJPwqkCR_pDQq-JYY8ci-14" target="QJPwqkCR_pDQq-JYY8ci-4">
          <mxGeometry width="50" height="50" relative="1" as="geometry">
            <mxPoint x="340" y="360" as="sourcePoint" />
            <mxPoint x="390" y="310" as="targetPoint" />
          </mxGeometry>
        </mxCell>
        <mxCell id="QJPwqkCR_pDQq-JYY8ci-46" value="" style="html=1;labelBackgroundColor=#ffffff;startArrow=none;startFill=0;startSize=6;endArrow=classic;endFill=1;endSize=6;jettySize=auto;orthogonalLoop=1;strokeWidth=1;dashed=1;fontSize=14;rounded=0;exitX=1;exitY=0.5;exitDx=0;exitDy=0;entryX=0;entryY=0.5;entryDx=0;entryDy=0;" edge="1" parent="1" source="QJPwqkCR_pDQq-JYY8ci-12" target="QJPwqkCR_pDQq-JYY8ci-16">
          <mxGeometry width="60" height="60" relative="1" as="geometry">
            <mxPoint x="330" y="360" as="sourcePoint" />
            <mxPoint x="390" y="300" as="targetPoint" />
          </mxGeometry>
        </mxCell>
        <mxCell id="QJPwqkCR_pDQq-JYY8ci-47" value="" style="html=1;labelBackgroundColor=#ffffff;startArrow=none;startFill=0;startSize=6;endArrow=classic;endFill=1;endSize=6;jettySize=auto;orthogonalLoop=1;strokeWidth=1;dashed=1;fontSize=14;rounded=0;exitX=1;exitY=0.5;exitDx=0;exitDy=0;entryX=0;entryY=0.5;entryDx=0;entryDy=0;" edge="1" parent="1" source="QJPwqkCR_pDQq-JYY8ci-11" target="QJPwqkCR_pDQq-JYY8ci-17">
          <mxGeometry width="60" height="60" relative="1" as="geometry">
            <mxPoint x="290" y="213" as="sourcePoint" />
            <mxPoint x="388" y="160" as="targetPoint" />
          </mxGeometry>
        </mxCell>
        <mxCell id="QJPwqkCR_pDQq-JYY8ci-48" value="" style="html=1;labelBackgroundColor=#ffffff;startArrow=none;startFill=0;startSize=6;endArrow=classic;endFill=1;endSize=6;jettySize=auto;orthogonalLoop=1;strokeWidth=1;dashed=1;fontSize=14;rounded=0;entryX=0;entryY=0.5;entryDx=0;entryDy=0;" edge="1" parent="1" source="QJPwqkCR_pDQq-JYY8ci-56" target="QJPwqkCR_pDQq-JYY8ci-15">
          <mxGeometry width="60" height="60" relative="1" as="geometry">
            <mxPoint x="280" y="160" as="sourcePoint" />
            <mxPoint x="398" y="170" as="targetPoint" />
          </mxGeometry>
        </mxCell>
        <mxCell id="QJPwqkCR_pDQq-JYY8ci-49" value="" style="html=1;labelBackgroundColor=#ffffff;startArrow=none;startFill=0;startSize=6;endArrow=classic;endFill=1;endSize=6;jettySize=auto;orthogonalLoop=1;strokeWidth=1;dashed=1;fontSize=14;rounded=0;exitX=1;exitY=0.5;exitDx=0;exitDy=0;entryX=0;entryY=1;entryDx=0;entryDy=0;" edge="1" parent="1" source="QJPwqkCR_pDQq-JYY8ci-26" target="QJPwqkCR_pDQq-JYY8ci-15">
          <mxGeometry width="60" height="60" relative="1" as="geometry">
            <mxPoint x="310" y="233" as="sourcePoint" />
            <mxPoint x="408" y="180" as="targetPoint" />
          </mxGeometry>
        </mxCell>
        <mxCell id="QJPwqkCR_pDQq-JYY8ci-50" value="" style="html=1;labelBackgroundColor=#ffffff;startArrow=none;startFill=0;startSize=6;endArrow=classic;endFill=1;endSize=6;jettySize=auto;orthogonalLoop=1;strokeWidth=1;dashed=1;fontSize=14;rounded=0;exitX=1;exitY=0.5;exitDx=0;exitDy=0;entryX=0.095;entryY=0.689;entryDx=0;entryDy=0;entryPerimeter=0;" edge="1" parent="1" source="QJPwqkCR_pDQq-JYY8ci-19" target="QJPwqkCR_pDQq-JYY8ci-15">
          <mxGeometry width="60" height="60" relative="1" as="geometry">
            <mxPoint x="320" y="243" as="sourcePoint" />
            <mxPoint x="418" y="190" as="targetPoint" />
          </mxGeometry>
        </mxCell>
        <mxCell id="QJPwqkCR_pDQq-JYY8ci-52" value="&lt;font style=&quot;font-size: 8px;&quot;&gt;&amp;lt;&amp;lt;inkluderer&amp;gt;&amp;gt;&lt;/font&gt;" style="text;html=1;align=center;verticalAlign=middle;whiteSpace=wrap;rounded=0;rotation=-15;fillColor=#B9E0A5;" vertex="1" parent="1">
          <mxGeometry x="290" y="141.25" width="55" height="12.5" as="geometry" />
        </mxCell>
        <mxCell id="QJPwqkCR_pDQq-JYY8ci-54" value="&lt;font style=&quot;font-size: 8px;&quot;&gt;&amp;lt;&amp;lt;inkluderer&amp;gt;&amp;gt;&lt;/font&gt;" style="text;html=1;align=center;verticalAlign=middle;whiteSpace=wrap;rounded=0;fillColor=#B9E0A5;" vertex="1" parent="1">
          <mxGeometry x="308.5" y="182.5" width="60" height="20" as="geometry" />
        </mxCell>
        <mxCell id="QJPwqkCR_pDQq-JYY8ci-57" value="" style="html=1;labelBackgroundColor=#ffffff;startArrow=none;startFill=0;startSize=6;endArrow=classic;endFill=1;endSize=6;jettySize=auto;orthogonalLoop=1;strokeWidth=1;dashed=1;fontSize=14;rounded=0;entryX=0;entryY=0.5;entryDx=0;entryDy=0;" edge="1" parent="1" target="QJPwqkCR_pDQq-JYY8ci-56">
          <mxGeometry width="60" height="60" relative="1" as="geometry">
            <mxPoint x="280" y="160" as="sourcePoint" />
            <mxPoint x="371" y="260" as="targetPoint" />
          </mxGeometry>
        </mxCell>
        <mxCell id="QJPwqkCR_pDQq-JYY8ci-56" value="&lt;font style=&quot;font-size: 8px;&quot;&gt;&amp;lt;&amp;lt;inkluderer&amp;gt;&amp;gt;&lt;/font&gt;" style="text;html=1;align=center;verticalAlign=middle;whiteSpace=wrap;rounded=0;rotation=30;fillColor=#B9E0A5;" vertex="1" parent="1">
          <mxGeometry x="300" y="220" width="60" height="20" as="geometry" />
        </mxCell>
        <mxCell id="QJPwqkCR_pDQq-JYY8ci-58" value="&lt;font style=&quot;font-size: 8px;&quot;&gt;&amp;lt;&amp;lt;inkluderer&amp;gt;&amp;gt;&lt;/font&gt;" style="text;html=1;align=center;verticalAlign=middle;whiteSpace=wrap;rounded=0;rotation=-15;fillColor=#B9E0A5;" vertex="1" parent="1">
          <mxGeometry x="290" y="260" width="60" height="20" as="geometry" />
        </mxCell>
        <mxCell id="QJPwqkCR_pDQq-JYY8ci-60" value="&lt;font style=&quot;font-size: 8px;&quot;&gt;&amp;lt;&amp;lt;inkluderer&amp;gt;&amp;gt;&lt;/font&gt;" style="text;html=1;align=center;verticalAlign=middle;whiteSpace=wrap;rounded=0;rotation=-60;fillColor=#B9E0A5;" vertex="1" parent="1">
          <mxGeometry x="307.5" y="355" width="60" height="20" as="geometry" />
        </mxCell>
      </root>
    </mxGraphModel>
  </diagram>
</mxfile>
